<svg xmlns="http://www.w3.org/2000/svg" xmlns:xlink="http://www.w3.org/1999/xlink" width="217.975" height="42.454" xmlns:v="https://vecta.io/nano"><style><![CDATA[.B{fill:#a8c621}.C{fill:#21967d}.D{fill:#0073bd}.E{fill:#59ac33}.F{fill:#91bd28}.G{fill:#a3c423}.H{fill:#9cc125}.I{fill:#bbcc1a}.J{fill:#4a1e6d}.K{fill:#20216e}.L{fill:#0e2572}.M{fill:none}.N{fill:#cb005c}.O{fill:#c6004e}.P{fill:#911068}.Q{fill:#b00458}.R{fill:#d10035}.S{fill:#5a1c6e}.T{fill:#6c196f}.U{fill:#8b1263}.V{fill:#b7053b}.W{fill:#eb4a15}.X{fill:#31206d}.Y{fill:#372174}.Z{fill:#3b217b}.a{fill:#4f2073}.b{fill:#7e334a}.c{fill:#db7916}.d{fill:#ed9f09}.e{fill:#192371}.f{fill:#002581}.g{fill:#00398f}.h{fill:#0b5089}.i{fill:#46745b}.j{fill:#55a733}.k{fill:#d3c310}.l{fill:#ddcd03}.m{fill:#003488}.n{fill:#0052a2}.o{fill:#00729b}.p{fill:#329e6a}.q{fill:#74b42e}.r{fill:#0062af}.s{fill:#0079a8}.t{fill:#2da174}.u{fill:#8cbc29}.v{fill:#0080b2}.w{fill:#279c7a}.x{fill:#77b52e}.y{fill:#b0006f}.z{fill:#bf0068}.AA{fill:#6d196f}.AB{fill:#88136f}.AC{fill:#9f0b6b}.AD{fill:#b20062}.AE{fill:#651a6d}.AF{fill:#7b166d}.AG{fill:#30206c}.AH{fill:#102370}.AI{fill:#0c2673}.AJ{fill:#00307d}.AK{fill:#004094}.AL{fill:#004f9f}.AM{fill:#006db8}.AN{fill:#0082b6}.AO{fill:#b7cb1d}.AP{fill:#002d7a}.AQ{fill:#003a8c}.AR{fill:#005daa}.AS{fill:#efcb00}]]></style><defs><clipPath id="A"><path d="M78.268,51.171a2.109,2.109,0,0,1-.654-1.543v-2.17h2.223a2.144,2.144,0,0,1,2.17,2.17h-.026a2.116,2.116,0,0,1-.64,1.556,2.087,2.087,0,0,1-1.529.641,2.11,2.11,0,0,1-1.543-.654m-4.445-12a2.14,2.14,0,0,0-.654,1.569v8.889a6.375,6.375,0,0,0,1.961,4.693,6.441,6.441,0,0,0,4.707,1.948,6.353,6.353,0,0,0,4.68-1.948,6.628,6.628,0,0,0-4.706-11.308h-2.2V40.74a2.218,2.218,0,0,0-3.791-1.569" transform="translate(-73.17 -38.517)" class="M"/></clipPath><clipPath id="B"><path d="M90.887,38.316v2.773h2.556V38.316h-.054a1.251,1.251,0,0,0-2.5,0" transform="translate(-90.887 -37.065)" class="M"/></clipPath><clipPath id="C"><path d="M112.5 48.332l-1.958 2.012 1.795 1.794 1.957-2.012a1.28 1.28 0 0 0 0-1.794 1.28 1.28 0 0 0-1.794 0" transform="translate(-110.547 -47.965)" class="M"/></clipPath><clipPath id="D"><path d="M90.533,99.108v2.773h.054a1.251,1.251,0,1,0,2.5,0V99.108Z" transform="translate(-90.533 -99.108)" class="M"/></clipPath><clipPath id="E"><path d="M119.048,70.77v2.5h2.773a1.25,1.25,0,1,0,0-2.5Z" transform="translate(-119.048 -70.77)" class="M"/></clipPath><clipPath id="F"><path d="M110.547 89.744L112.5 91.7a1.27 1.27 0 0 0 1.794-1.794l-1.957-1.958z" transform="translate(-110.547 -87.95)" class="M"/></clipPath><clipPath id="G"><path d="M33.559,39.587a2.118,2.118,0,0,0-.667,1.568v2.092h-.724a2.222,2.222,0,0,0,0,4.444h.724v2.326a6.673,6.673,0,0,0,6.666,6.641h.549a2.222,2.222,0,0,0,0-4.445h-.575a2.232,2.232,0,0,1-2.2-2.2v-2.2h2.771a2.222,2.222,0,0,0,0-4.445H37.363V41.156a2.232,2.232,0,0,0-2.222-2.223,2.181,2.181,0,0,0-1.582.654" transform="translate(-29.946 -38.933)" class="M"/></clipPath><clipPath id="H"><path d="M0 0h217.975v42.454H0z" class="M"/></clipPath><path id="I" d="M-11.773 6.53l.175.175 2.466-2.466-2.466-2.466-.175.175z"/><path id="J" d="M-11.598 1.773l2.466-2.466 2.466 2.466-2.466 2.466z"/><path id="K" d="M-9.132 9.172l2.466-2.467 2.467 2.466-2.466 2.467z"/><path id="L" d="M-9.131 14.104l2.465-2.465 2.465 2.465-2.465 2.465z"/><path id="M" d="M5.665 19.036l2.467-2.466 2.466 2.467-2.467 2.466z"/><path id="N" d="M-16.676 4.242l.175.175 2.462-2.466-2.467-2.466-.175.175z"/><path id="O" d="M7.983 24.322l.176-.176-2.466-2.466-2.466 2.466.176.176z"/><path id="P" d="M-16.676 23.97l.175.175 2.467-2.466-2.467-2.466-.175.175z"/></defs><g clip-path="url(#A)" transform="translate(22.461 11.824)"><path d="M-11.773 6.88l.175-.175-.175-.175z" class="y"/><use xlink:href="#I" class="z"/><use xlink:href="#J" class="N"/><path fill="#d4004b" d="M-9.131-.693l2.466-2.466L-4.2-.693-6.665 1.773z"/><path d="M-11.773 11.813l.175-.175-.175-.176z" class="AA"/><path d="M-11.773 11.463l.175.175 2.466-2.466-2.466-2.467-.175.175z" class="AB"/><path d="M-11.598 6.706l2.466-2.466 2.466 2.466-2.466 2.466z" class="AC"/><path d="M-9.131 4.239l2.466-2.466L-4.2 4.239-6.665 6.705z" class="AD"/><path d="M-6.665 1.773l2.466-2.466 2.466 2.466-2.466 2.466z" class="O"/><path fill="#db0033" d="M-4.199-.692l2.466-2.466L.732-.692-1.733 1.774z"/><path d="M-11.773 16.395l.175.175 2.466-2.466-2.466-2.466-.175.175z" class="J"/><path d="M-11.598 11.638l2.466-2.466 2.466 2.466-2.466 2.466z" class="AE"/><use xlink:href="#K" class="AF"/><path d="M-6.665 6.706l2.466-2.466 2.466 2.466-2.466 2.466z" class="P"/><path d="M-4.199 4.239l2.466-2.466L.732 4.239-1.733 6.705z" class="Q"/><path d="M-1.733 1.773L.732-.692l2.465 2.465L.732 4.238z" class="R"/><path fill="#e92d17" d="M.733-.692l2.466-2.466L5.664-.692 3.199 1.774z"/><path d="M-11.598 16.57l2.466-2.466 2.466 2.466-2.466 2.466z" class="AG"/><use xlink:href="#L" class="J"/><path d="M-6.665 11.638l2.466-2.466 2.466 2.466-2.466 2.466z" class="S"/><path d="M-4.199 9.172l2.465-2.465L.732 9.172l-2.465 2.465z" class="T"/><path d="M-1.733 6.706L.733 4.24 3.2 6.706.733 9.172z" class="U"/><path d="M.733 4.239l2.466-2.466 2.466 2.466-2.466 2.466z" class="V"/><path d="M3.199 1.773L5.664-.692 8.13 1.773 5.664 4.238z" class="W"/><path fill="#f7790d" d="M5.665-.693l2.466-2.466 2.466 2.466-2.466 2.466z"/><path d="M-9.132 19.036l2.466-2.466 2.466 2.466-2.466 2.466z" class="K"/><path d="M-6.665 16.57l2.466-2.466 2.466 2.466-2.466 2.466z" class="X"/><path d="M-4.199 14.104l2.466-2.466 2.466 2.466-2.466 2.466z" class="Y"/><path d="M-1.733 11.638L.732 9.173l2.465 2.465-2.465 2.465z" class="Z"/><path d="M.733 9.172l2.465-2.466 2.466 2.465-2.465 2.466z" class="a"/><path d="M3.199 6.706L5.665 4.24l2.466 2.466-2.466 2.466z" class="b"/><path d="M5.665 4.239l2.466-2.466 2.466 2.466-2.466 2.466z" class="c"/><path d="M8.131 1.773l2.465-2.465 2.465 2.465-2.465 2.465z" class="d"/><path fill="#f1ae00" d="M10.597-.692l2.466-2.466 2.466 2.466-2.466 2.466z"/><path d="M-6.665 21.502l2.465-2.465 2.465 2.465-2.465 2.465z" class="AH"/><path d="M-4.199 19.036l2.466-2.466 2.466 2.466-2.466 2.466z" class="e"/><path d="M-1.733 16.57l2.466-2.466 2.466 2.466-2.466 2.466z" class="f"/><path d="M.733 14.104l2.466-2.466 2.466 2.466-2.466 2.466z" class="g"/><path d="M3.199 11.638l2.465-2.465 2.465 2.465-2.465 2.465z" class="h"/><path d="M5.665 9.172l2.466-2.466 2.466 2.466-2.466 2.466z" class="i"/><path d="M8.131 6.706l2.466-2.466 2.466 2.466-2.466 2.466z" class="j"/><path d="M10.597 4.239l2.466-2.466 2.466 2.466-2.466 2.466z" class="k"/><path d="M13.063 1.773l2.465-2.465 2.465 2.465-2.465 2.465z" class="l"/><path d="M15.529-.693l2.466-2.466L20.46-.693l-2.466 2.466z" class="AS"/><path d="M-4.199 23.968l2.466-2.466 2.466 2.466-2.466 2.466z" class="L"/><path d="M-1.733 21.502l2.466-2.466 2.466 2.466-2.466 2.466z" class="AI"/><path d="M.733 19.036l2.466-2.466 2.466 2.466-2.466 2.466z" class="m"/><path d="M3.199 16.57l2.466-2.466L8.13 16.57l-2.466 2.466z" class="n"/><path d="M22.927 1.773l.175-.175v-4.585l-.175-.175-2.466 2.466z" class="AO"/><path d="M5.665 14.104l2.466-2.466 2.466 2.466-2.466 2.466z" class="o"/><path d="M8.131 11.638l2.465-2.465 2.465 2.465-2.465 2.465z" class="p"/><path d="M10.597 9.172l2.465-2.466 2.466 2.465-2.465 2.466z" class="E"/><path d="M13.063 6.706l2.466-2.466 2.466 2.466-2.466 2.466z" class="q"/><path d="M15.529 4.239l2.465-2.465 2.465 2.465-2.465 2.465z" class="F"/><path d="M17.995 1.773l2.466-2.466 2.466 2.466-2.466 2.466z" class="B"/><path d="M.733 23.968l2.466-2.466 2.466 2.466-2.466 2.466z" class="AJ"/><path d="M3.199 21.502l2.466-2.467 2.467 2.466-2.466 2.467z" class="AK"/><use xlink:href="#M" class="r"/><path d="M8.131 16.57l2.466-2.466 2.466 2.466-2.466 2.466z" class="s"/><path d="M10.597 14.104l2.466-2.466 2.466 2.466-2.466 2.466z" class="t"/><path d="M13.063 11.638l2.465-2.465 2.465 2.465-2.465 2.465z" class="E"/><path d="M15.529 9.172l2.466-2.467 2.467 2.466-2.466 2.467z" class="u"/><path d="M17.995 6.706l2.466-2.466 2.466 2.466-2.466 2.466z" class="G"/><path d="M22.927 6.705l.175-.175V1.949l-.175-.175-2.466 2.466z" class="H"/><path d="M5.665 23.968l2.465-2.465 2.465 2.465-2.465 2.465z" class="AL"/><path d="M8.131 21.502l2.466-2.466 2.466 2.466-2.466 2.466z" class="AM"/><path d="M10.597 19.036l2.466-2.466 2.466 2.466-2.466 2.466z" class="v"/><path d="M13.063 16.57l2.466-2.466 2.466 2.466-2.466 2.466z" class="w"/><path d="M15.529 14.104l2.466-2.466 2.466 2.466-2.466 2.466z" class="x"/><path d="M17.995 11.638l2.466-2.466 2.466 2.466-2.466 2.466z" class="G"/><g class="H"><path d="M22.927 11.638l.175-.175V6.881l-.175-.175-2.466 2.467z"/><path d="M23.102 6.88v-.35l-.175.175z"/></g><path d="M10.597 23.968l2.466-2.466 2.466 2.466-2.466 2.466z" class="D"/><path d="M13.063 21.502l2.466-2.467 2.467 2.466-2.466 2.467z" class="AN"/><path d="M15.529 19.036l2.467-2.466 2.466 2.467-2.467 2.466z" class="C"/><path d="M17.995 16.57l2.466-2.466 2.466 2.466-2.466 2.466z" class="F"/><g class="I"><path d="M22.927 16.57l.175-.175V11.81l-.175-.175-2.466 2.466z"/><path d="M23.102 11.813v-.351l-.175.176z"/></g><path d="M15.529 23.967l2.466-2.466 2.466 2.466-2.466 2.466z" class="D"/><path d="M17.995 21.501l2.466-2.466 2.466 2.466-2.466 2.466z" class="C"/><path d="M22.926 21.502l.175-.175v-4.582l-.175-.176-2.466 2.466z" class="B"/><path d="M23.102 16.745v-.351l-.175.176z" class="I"/><path d="M22.926 26.433l.175-.175v-4.581l-.175-.176-2.466 2.466z" class="C"/><path d="M23.102 21.677v-.351l-.175.175z" class="B"/><path d="M23.102 1.949v-.35l-.175.175z" class="AO"/><path d="M-11.773 1.974l.185-.185-.185-.185z" class="N"/><path d="M-11.773 1.599l.185.185 2.466-2.466-2.466-2.466-.185.186z" fill="#d4004b"/><g class="K"><path d="M-11.773 16.745l.175-.175-.175-.176zm0 4.932l.175-.175-.175-.176z"/><path d="M-11.773 21.326l.175.175 2.466-2.466-2.466-2.466-.175.175z"/><path d="M-11.773 26.258l.175.175 2.466-2.466-2.466-2.466-.175.175z"/><path d="M-11.598 21.502l2.466-2.466 2.466 2.466-2.466 2.466z"/></g><path d="M-9.131 23.968l2.465-2.465 2.465 2.465-2.465 2.465z" class="L"/></g><g clip-path="url(#B)" transform="translate(27.9 11.378)"><path d="M-16.676 4.592l.175-.175-.175-.176z" class="y"/><use xlink:href="#N" class="z"/><path d="M-16.501-.515l2.466-2.465 2.465 2.466-2.466 2.465z" class="N"/><path d="M-16.676 9.524l.175-.175-.175-.176z" class="AA"/><path d="M-16.676 9.174l.175.175 2.462-2.465-2.467-2.466-.175.175z" class="AB"/><path d="M-16.501 4.417l2.467-2.466 2.466 2.467-2.467 2.466z" class="AC"/><path d="M-14.035 1.951l2.466-2.466 2.466 2.466-2.466 2.466z" class="AD"/><path d="M-11.569-.515l2.465-2.465 2.465 2.465-2.465 2.465z" class="O"/><path d="M-16.676 14.107l.175.175 2.462-2.466-2.467-2.466-.175.175z" class="J"/><path d="M-16.501 9.349l2.465-2.465 2.465 2.465-2.465 2.465z" class="AE"/><path d="M-14.035 6.884l2.466-2.466 2.466 2.466-2.466 2.466z" class="AF"/><path d="M-11.569 4.418l2.465-2.465 2.465 2.465-2.465 2.465z" class="P"/><path d="M-9.103 1.951l2.466-2.466 2.466 2.466-2.466 2.466z" class="Q"/><path d="M-6.637-.515l2.465-2.465 2.465 2.465-2.465 2.465z" class="R"/><path d="M-16.501 14.281l2.466-2.466 2.466 2.466-2.466 2.466z" class="AG"/><path d="M-14.035 11.815l2.466-2.466 2.466 2.466-2.466 2.466z" class="J"/><path d="M-11.569 9.349l2.466-2.466 2.466 2.466-2.466 2.466z" class="S"/><path d="M-9.103 6.884l2.466-2.466 2.466 2.466-2.466 2.466z" class="T"/><path d="M-6.637 4.418l2.466-2.466 2.466 2.466-2.466 2.466z" class="U"/><path d="M-4.171 1.951l2.466-2.465L.76 1.952-1.706 4.417z" class="V"/><path d="M-1.705-.515L.761-2.981 3.226-.515.761 1.951z" class="W"/><path d="M-14.035 16.748l2.465-2.465 2.465 2.465-2.465 2.465z" class="K"/><path d="M-11.569 14.282l2.466-2.466 2.466 2.466-2.466 2.466z" class="X"/><path d="M-9.103 11.815l2.466-2.466 2.466 2.466-2.466 2.466z" class="Y"/><path d="M-6.637 9.349l2.465-2.465 2.465 2.465-2.465 2.465z" class="Z"/><path d="M-4.171 6.883l2.465-2.465L.76 6.883-1.706 9.348z" class="a"/><path d="M-1.705 4.418L.76 1.953l2.465 2.465L.76 6.883z" class="b"/><path d="M.761 1.951L3.227-.515l2.466 2.466-2.466 2.466z" class="c"/><path d="M3.227-.515L5.692-2.98 8.158-.515 5.692 1.95z" class="d"/><path d="M-11.569 19.214l2.466-2.466 2.466 2.466-2.466 2.466z" class="AH"/><path d="M-9.103 16.748l2.465-2.465 2.465 2.465-2.465 2.465z" class="e"/><path d="M-6.637 14.281l2.466-2.466 2.466 2.466-2.466 2.466z" class="f"/><path d="M-4.171 11.815l2.465-2.465L.76 11.815-1.706 14.28z" class="g"/><path d="M-1.705 9.35L.76 6.885 3.226 9.35.76 11.815z" class="h"/><path d="M.761 6.884l2.466-2.466 2.466 2.466L3.227 9.35z" class="i"/><path d="M3.227 4.418l2.466-2.466 2.466 2.466-2.466 2.466z" class="j"/><path d="M5.693 1.951L8.159-.515l2.466 2.466-2.466 2.466z" class="k"/><path d="M8.159-.515l2.465-2.465L13.09-.515 10.624 1.95z" class="l"/><path d="M-9.103 21.68l2.466-2.466 2.466 2.466-2.466 2.466z" class="L"/><path d="M-6.637 19.214l2.466-2.466 2.466 2.466-2.466 2.466z" class="AI"/><path d="M-4.171 16.747l2.466-2.466L.76 16.747l-2.466 2.466z" class="m"/><path d="M-1.705 14.282L.76 11.817l2.465 2.465L.76 16.747z" class="n"/><path d="M.761 11.815l2.466-2.466 2.466 2.466-2.466 2.466z" class="o"/><path d="M3.227 9.349l2.465-2.465 2.465 2.465-2.465 2.465z" class="p"/><path d="M5.693 6.884l2.466-2.466 2.466 2.466L8.159 9.35z" class="E"/><path d="M8.159 4.418l2.466-2.466 2.466 2.466-2.466 2.466z" class="q"/><path d="M10.625 1.951L13.09-.514l2.465 2.465-2.465 2.465z" class="F"/><path d="M13.092-.514l2.466-2.466 2.466 2.466-2.466 2.466z" class="B"/><path d="M-1.882 24.322l.177-.176-2.467-2.466-2.466 2.466.177.176z" class="AP"/><path d="M-4.171 21.679l2.465-2.465L.76 21.679l-2.465 2.465z" class="AJ"/><path d="M-1.705 19.214L.76 16.749l2.465 2.465L.76 21.679z" class="AK"/><path d="M.761 16.748l2.466-2.466 2.466 2.466-2.466 2.466z" class="r"/><path d="M3.227 14.281l2.466-2.466 2.466 2.466-2.466 2.466z" class="s"/><path d="M5.693 11.815l2.466-2.466 2.466 2.466-2.466 2.466z" class="t"/><path d="M8.159 9.349l2.465-2.465 2.465 2.465-2.465 2.465z" class="E"/><path d="M10.625 6.884l2.466-2.466 2.466 2.466-2.466 2.466z" class="u"/><path d="M13.091 4.418l2.466-2.467 2.467 2.466-2.466 2.467z" class="G"/><path d="M18.024 4.417l.175-.175V-.34l-.175-.175-2.466 2.466z" class="H"/><path d="M3.051 24.322l.176-.176L.761 21.68l-2.465 2.466.176.176z" class="AQ"/><path d="M.761 21.68l2.466-2.466 2.466 2.466-2.466 2.466z" class="AL"/><path d="M3.227 19.214l2.466-2.466 2.466 2.466-2.466 2.466z" class="AM"/><path d="M5.693 16.748l2.466-2.466 2.466 2.466-2.466 2.466z" class="v"/><path d="M8.159 14.281l2.466-2.466 2.466 2.466-2.466 2.466z" class="w"/><path d="M10.625 11.815l2.466-2.466 2.466 2.466-2.466 2.466z" class="x"/><path d="M13.092 9.349l2.466-2.466 2.466 2.466-2.466 2.466z" class="G"/><g class="H"><path d="M18.024 9.349l.175-.175V4.593l-.175-.175-2.466 2.466z"/><path d="M18.199 4.592v-.351l-.175.176z"/></g><use xlink:href="#O" class="AR"/><path d="M5.693 21.68l2.466-2.466 2.466 2.466-2.466 2.466z" class="D"/><path d="M8.159 19.214l2.466-2.466 2.466 2.466-2.466 2.466z" class="AN"/><path d="M10.625 16.748l2.466-2.466 2.466 2.466-2.466 2.466z" class="C"/><path d="M13.091 14.281l2.466-2.466 2.466 2.466-2.466 2.466z" class="F"/><g class="I"><path d="M18.024 14.282l.175-.175V9.528l-.175-.175-2.466 2.466z"/><path d="M18.199 9.524v-.35l-.175.176z"/></g><g class="D"><path d="M12.914 24.322l.177-.177-2.466-2.466-2.466 2.466.177.177z"/><path d="M10.625 21.679l2.466-2.466 2.466 2.466-2.466 2.466z"/></g><path d="M13.091 19.213l2.465-2.465 2.465 2.465-2.465 2.465z" class="C"/><path d="M18.023 19.213l.176-.175v-4.581l-.176-.176-2.466 2.467z" class="B"/><path d="M18.199 14.456v-.351l-.176.176z" class="I"/><path d="M17.846 24.322l.177-.177-2.464-2.465-2.466 2.466.177.177z" class="D"/><path d="M18.023 24.145l.176-.175v-4.581l-.176-.176-2.466 2.466z" class="C"/><path d="M18.199 19.389v-.351l-.176.176z" class="B"/><g class="K"><path d="M-16.676 14.457l.175-.175-.175-.175zm0 4.933l.175-.175-.175-.176z"/><path d="M-16.676 19.038l.175.175 2.462-2.466-2.467-2.466-.175.175z"/><use xlink:href="#P"/><path d="M-16.501 19.213l2.466-2.466 2.466 2.466-2.466 2.466z"/></g><g class="L"><path d="M-11.746 24.322l.177-.176-2.465-2.466-2.467 2.466.177.176z"/><path d="M-14.035 21.68l2.466-2.466 2.466 2.466-2.466 2.466z"/><path d="M-6.813 24.322l.176-.176-2.466-2.466-2.466 2.466.176.176z"/></g></g><g clip-path="url(#C)" transform="translate(33.935 14.724)"><path d="M-23.279.783l.175-.175-.175-.176z" class="y"/><path d="M-23.279.432l.175.175 2.467-2.466-2.467-2.466-.175.175z" class="z"/><path d="M-23.104-4.325l2.467-2.466 2.466 2.467-2.467 2.466z" class="N"/><path d="M-23.279 5.715l.175-.175-.175-.176z" class="AA"/><path d="M-23.279 5.364l.175.175 2.467-2.466-2.467-2.467-.175.175z" class="AB"/><path d="M-23.104.607l2.466-2.466 2.466 2.466-2.466 2.466z" class="AC"/><path d="M-20.638-1.859l2.466-2.466 2.466 2.466-2.466 2.466z" class="AD"/><path d="M-18.172-4.325l2.466-2.466 2.466 2.466-2.466 2.466z" class="O"/><path d="M-23.279 10.296l.175.175 2.467-2.466-2.467-2.466-.175.175z" class="J"/><path d="M-23.104 5.539l2.466-2.466 2.466 2.466-2.466 2.466z" class="AE"/><path d="M-20.638 3.074l2.465-2.465 2.465 2.465-2.465 2.465z" class="AF"/><path d="M-18.172.607l2.466-2.466 2.466 2.466-2.466 2.466z" class="P"/><path d="M-15.706-1.859l2.465-2.465 2.465 2.465-2.465 2.465z" class="Q"/><path d="M-13.24-4.325l2.466-2.466 2.466 2.466-2.466 2.466z" class="R"/><path d="M-23.104 10.471l2.466-2.466 2.466 2.466-2.466 2.466z" class="AG"/><path d="M-20.638 8.005l2.466-2.466 2.466 2.466-2.466 2.466z" class="J"/><path d="M-18.172 5.539l2.466-2.466 2.466 2.466-2.466 2.466z" class="S"/><path d="M-15.706 3.074l2.465-2.466 2.466 2.465-2.465 2.466z" class="T"/><path d="M-13.24.607l2.466-2.466L-8.307.607l-2.466 2.466z" class="U"/><path d="M-10.774-1.859l2.467-2.466 2.466 2.467L-8.308.608z" class="V"/><path d="M-8.307-4.325l2.465-2.465 2.465 2.465-2.465 2.465z" class="W"/><path d="M-20.638 12.937l2.466-2.466 2.466 2.466-2.466 2.466z" class="K"/><path d="M-18.172 10.471l2.466-2.466 2.466 2.466-2.466 2.466z" class="X"/><path d="M-15.706 8.005l2.465-2.465 2.465 2.465-2.465 2.465z" class="Y"/><path d="M-13.24 5.539l2.466-2.466 2.466 2.466-2.466 2.466z" class="Z"/><path d="M-10.774 3.073L-8.308.607l2.466 2.466-2.466 2.466z" class="a"/><path d="M-8.307.607l2.466-2.466L-3.376.607-5.841 3.073z" class="b"/><path d="M-5.841-1.859l2.465-2.465L-.91-1.859-3.376.606z" class="c"/><path d="M-3.375-4.325l2.466-2.466 2.466 2.466-2.466 2.466z" class="d"/><path d="M-18.172 15.403l2.466-2.466 2.466 2.466-2.466 2.466z" class="AH"/><path d="M-15.706 12.937l2.466-2.466 2.466 2.466-2.466 2.466z" class="e"/><path d="M-13.24 10.471l2.466-2.466 2.466 2.466-2.466 2.466z" class="f"/><path d="M-10.774 8.005l2.467-2.466 2.466 2.467-2.467 2.466z" class="g"/><path d="M-8.307 5.539l2.465-2.465 2.465 2.465-2.465 2.465z" class="h"/><path d="M-5.841 3.074L-3.376.608-.91 3.073-3.375 5.539z" class="i"/><path d="M-3.376.607l2.467-2.466L1.557.607-.91 3.074z" class="j"/><path d="M-.909-1.859l2.465-2.465 2.465 2.465L1.556.606z" class="k"/><path d="M1.556-4.325L4.021-6.79l2.465 2.465L4.021-1.86z" class="l"/><path d="M-15.706 17.87l2.466-2.466 2.466 2.466-2.466 2.466z" class="L"/><path d="M-13.24 15.403l2.466-2.466 2.466 2.466-2.466 2.466z" class="AI"/><path d="M-10.774 12.937l2.466-2.466 2.466 2.466-2.466 2.466z" class="m"/><path d="M-8.307 10.471l2.466-2.466 2.466 2.466-2.466 2.466z" class="n"/><path d="M-5.841 8.005l2.465-2.465L-.91 8.005-3.376 10.47z" class="o"/><path d="M-3.375 5.539l2.466-2.465L1.556 5.54-.91 8.005z" class="p"/><path d="M-.909 3.074L1.556.608l2.466 2.465-2.465 2.466z" class="E"/><path d="M1.556.607l2.466-2.466L6.489.607 4.022 3.073z" class="q"/><path d="M4.022-1.859l2.466-2.466 2.466 2.466L6.488.607z" class="F"/><path d="M6.488-4.325l2.466-2.467 2.467 2.466-2.466 2.467z" class="B"/><path d="M-8.484 20.512l.177-.176-2.467-2.466-2.466 2.466.177.176z" class="AP"/><path d="M-10.774 17.869l2.466-2.466 2.466 2.466-2.466 2.466z" class="AJ"/><path d="M-8.307 15.403l2.466-2.466 2.466 2.466-2.466 2.466z" class="AK"/><path d="M-5.841 12.937l2.466-2.466 2.466 2.466-2.466 2.466z" class="r"/><path d="M-3.375 10.471l2.466-2.466 2.466 2.466-2.466 2.466z" class="s"/><path d="M-.909 8.005L1.556 5.54l2.465 2.465-2.465 2.465z" class="t"/><path d="M1.556 5.539l2.465-2.465 2.465 2.465-2.465 2.465z" class="E"/><path d="M4.022 3.074L6.487.608l2.466 2.465-2.465 2.466z" class="u"/><path d="M6.488.607l2.466-2.466L11.421.607 8.954 3.073z" class="G"/><path d="M11.42.607l.175-.175v-4.581l-.175-.175-2.466 2.466z" class="H"/><path d="M-3.552 20.512l.176-.176-2.466-2.466-2.466 2.466.176.176z" class="AQ"/><path d="M-5.841 17.87l2.466-2.466L-.91 17.87l-2.466 2.466z" class="AL"/><path d="M-3.375 15.403l2.466-2.466 2.466 2.466-2.466 2.466z" class="AM"/><path d="M-.909 12.937l2.466-2.466 2.466 2.466-2.466 2.466z" class="v"/><path d="M1.556 10.471l2.466-2.466 2.466 2.466-2.466 2.466z" class="w"/><path d="M4.022 8.005l2.466-2.466 2.466 2.466-2.466 2.466z" class="x"/><path d="M6.488 5.539l2.466-2.466 2.466 2.466-2.466 2.466z" class="G"/><g class="H"><path d="M11.42 5.539l.175-.175V.782L11.42.607 8.954 3.074z"/><path d="M11.597.783V.432l-.175.176z"/></g><path d="M1.38 20.512l.176-.176L-.91 17.87l-2.466 2.466.177.176z" class="AR"/><path d="M-.909 17.87l2.466-2.466 2.466 2.466-2.466 2.466z" class="D"/><path d="M1.556 15.403l2.466-2.466 2.466 2.466-2.466 2.466z" class="AN"/><path d="M4.022 12.937l2.466-2.466 2.466 2.466-2.466 2.466z" class="C"/><path d="M6.488 10.471l2.466-2.466 2.466 2.466-2.466 2.466z" class="F"/><g class="I"><path d="M11.42 10.471l.175-.175V5.714l-.175-.175-2.466 2.466z"/><path d="M11.597 5.715v-.351l-.175.176z"/></g><g class="D"><path d="M6.311 20.512l.177-.177-2.467-2.466-2.465 2.466.177.177z"/><path d="M4.022 17.869l2.465-2.465 2.465 2.465-2.465 2.465z"/></g><path d="M6.488 15.403l2.465-2.465 2.465 2.465-2.465 2.465z" class="C"/><path d="M11.42 15.403l.176-.175v-4.581l-.176-.176-2.466 2.466z" class="B"/><path d="M11.596 10.647v-.355l-.176.175z" class="I"/><path d="M11.244 20.512l.177-.177-2.466-2.466-2.466 2.466.177.177z" class="D"/><path d="M11.42 20.335l.176-.175v-4.581l-.176-.176-2.466 2.466z" class="C"/><path d="M11.596 15.579v-.351l-.176.176z" class="B"/><g class="K"><path d="M-23.279 10.646l.175-.175-.175-.176zm0 4.933l.175-.175-.175-.175z"/><path d="M-23.279 15.228l.175.175 2.467-2.466-2.467-2.466-.175.175z"/><path d="M-23.279 20.161l.175.175 2.467-2.466-2.467-2.466-.175.175z"/><path d="M-23.104 15.403l2.466-2.466 2.466 2.466-2.466 2.466z"/></g><g class="L"><path d="M-18.349 20.512l.177-.176-2.466-2.466-2.467 2.466.177.176z"/><path d="M-20.638 17.869l2.466-2.466 2.466 2.466-2.466 2.466z"/><path d="M-13.416 20.512l.176-.176-2.466-2.466-2.466 2.466.176.176z"/></g></g><g clip-path="url(#D)" transform="translate(27.791 30.424)"><path d="M-17.651-15.278l.175-.175-.175-.176z" class="y"/><path d="M-17.651-15.629l.175.175 2.466-2.466-2.466-2.466-.175.175z" class="z"/><path d="M-17.476-20.386l2.466-2.466 2.466 2.466-2.466 2.466z" class="N"/><path d="M-17.651-10.346l.175-.175-.175-.176z" class="AA"/><path d="M-17.651-10.696l.175.175 2.466-2.466-2.466-2.466-.175.175z" class="AB"/><path d="M-17.476-15.454l2.466-2.466 2.466 2.466-2.466 2.466z" class="AC"/><path d="M-15.01-17.92l2.466-2.466 2.466 2.466-2.466 2.466z" class="AD"/><path d="M-12.544-20.386l2.466-2.466 2.466 2.466-2.466 2.466z" class="O"/><path d="M-17.651-5.764l.175.175 2.466-2.466-2.466-2.466-.175.175z" class="J"/><path d="M-17.476-10.521l2.466-2.466 2.466 2.466-2.466 2.466z" class="AE"/><path d="M-15.01-12.988l2.466-2.466 2.466 2.466-2.466 2.466z" class="AF"/><path d="M-12.544-15.454l2.466-2.466 2.466 2.466-2.466 2.466z" class="P"/><path d="M-10.078-17.92l2.466-2.466 2.466 2.466-2.466 2.466z" class="Q"/><path d="M-7.612-20.386l2.466-2.466 2.466 2.466-2.466 2.466z" class="R"/><path d="M-17.476-5.589l2.466-2.466 2.466 2.466-2.466 2.466z" class="AG"/><path d="M-15.01-8.055l2.466-2.466 2.466 2.466-2.466 2.466z" class="J"/><path d="M-12.544-10.521l2.466-2.466 2.466 2.466-2.466 2.466z" class="S"/><path d="M-10.078-12.988l2.466-2.466 2.466 2.466-2.466 2.466z" class="T"/><path d="M-7.612-15.454l2.466-2.466 2.466 2.466-2.466 2.466z" class="U"/><path d="M-5.146-17.92l2.466-2.466 2.466 2.466-2.466 2.466z" class="V"/><path d="M-2.68-20.386l2.466-2.466 2.466 2.466-2.466 2.466z" class="W"/><path d="M-15.01-3.123l2.466-2.466 2.466 2.466-2.466 2.466z" class="K"/><path d="M-12.544-5.589l2.466-2.466 2.466 2.466-2.466 2.466z" class="X"/><path d="M-10.078-8.055l2.466-2.466 2.466 2.466-2.466 2.466z" class="Y"/><path d="M-7.612-10.521l2.466-2.466 2.466 2.466-2.466 2.466z" class="Z"/><path d="M-5.146-12.988l2.466-2.466 2.466 2.466-2.466 2.466z" class="a"/><path d="M-2.68-15.454l2.466-2.466 2.466 2.466-2.466 2.466z" class="b"/><path d="M-.213-17.92l2.466-2.466 2.466 2.466-2.466 2.466z" class="c"/><path d="M2.253-20.386l2.465-2.465 2.465 2.465-2.465 2.465z" class="d"/><path d="M-12.544-.657l2.466-2.466 2.466 2.466-2.466 2.466z" class="AH"/><path d="M-10.078-3.123l2.466-2.466 2.466 2.466-2.466 2.466z" class="e"/><path d="M-7.612-5.589l2.466-2.466 2.466 2.466-2.466 2.466z" class="f"/><path d="M-5.146-8.055l2.466-2.466 2.466 2.466-2.466 2.466z" class="g"/><path d="M-2.68-10.521l2.466-2.467 2.467 2.466-2.466 2.467z" class="h"/><path d="M-.214-12.988l2.467-2.466 2.466 2.467-2.467 2.466z" class="i"/><path d="M2.253-15.454l2.466-2.466 2.466 2.466-2.466 2.466z" class="j"/><path d="M4.719-17.92l2.466-2.466L9.65-17.92l-2.466 2.466z" class="k"/><path d="M7.185-20.386l2.465-2.465 2.465 2.465-2.465 2.465z" class="l"/><path d="M-10.078 1.809l2.465-2.465 2.465 2.465-2.465 2.465z" class="L"/><path d="M-7.612-.657l2.467-2.466 2.466 2.467-2.467 2.466z" class="AI"/><path d="M-5.146-3.123l2.466-2.466 2.466 2.466L-2.68-.657z" class="m"/><path d="M-2.68-5.589l2.466-2.466 2.466 2.466-2.466 2.466z" class="n"/><path d="M-.213-8.055l2.466-2.466 2.466 2.466-2.466 2.466z" class="o"/><path d="M2.253-10.521l2.466-2.466 2.466 2.466-2.466 2.466z" class="p"/><path d="M4.719-12.988l2.466-2.466 2.466 2.466-2.466 2.466z" class="E"/><path d="M7.185-15.454l2.466-2.466 2.466 2.466-2.466 2.466z" class="q"/><path d="M9.651-17.92l2.466-2.466 2.466 2.466-2.466 2.466z" class="F"/><path d="M12.117-20.386l2.466-2.467 2.467 2.466-2.466 2.467z" class="B"/><path d="M-2.856 4.452l.176-.176-2.468-2.468-2.466 2.465.177.177z" class="AP"/><path d="M-5.146 1.809L-2.68-.657-.215 1.809-2.68 4.275z" class="AJ"/><path d="M-2.68-.657l2.466-2.466L2.253-.657-.214 1.809z" class="AK"/><path d="M-.213-3.123l2.466-2.466 2.466 2.466L2.253-.657z" class="r"/><path d="M2.253-5.589l2.466-2.466 2.466 2.466-2.466 2.466z" class="s"/><path d="M4.719-8.055l2.466-2.466L9.65-8.055 7.185-5.589z" class="t"/><path d="M7.185-10.521l2.466-2.466 2.466 2.466-2.466 2.466z" class="E"/><path d="M9.651-12.988l2.466-2.466 2.466 2.466-2.466 2.466z" class="u"/><path d="M12.117-15.454l2.466-2.466 2.466 2.466-2.466 2.466z" class="G"/><path d="M17.045-15.453l.175-.175v-4.582l-.175-.176-2.466 2.466z" class="H"/><path d="M2.076 4.452l.176-.177-2.466-2.467-2.47 2.467.176.176z" class="AQ"/><path d="M-.213 1.809L2.253-.657l2.466 2.466-2.466 2.466z" class="AL"/><path d="M2.253-.657l2.466-2.466L7.184-.657 4.719 1.809z" class="AM"/><path d="M4.719-3.123l2.466-2.466L9.65-3.123 7.185-.657z" class="v"/><path d="M7.185-5.589l2.466-2.466 2.466 2.466-2.466 2.466z" class="w"/><path d="M9.651-8.055l2.466-2.466 2.466 2.466-2.466 2.466z" class="x"/><path d="M12.117-10.521l2.466-2.466 2.466 2.466-2.466 2.466z" class="G"/><g class="H"><path d="M17.045-10.521l.175-.175v-4.583l-.175-.175-2.466 2.466z"/><path d="M17.224-15.278v-.346l-.175.176z"/></g><path d="M7.007 4.452l.177-.177-2.466-2.467-2.466 2.465.176.177z" class="AR"/><path d="M4.719 1.809L7.185-.657 9.65 1.809 7.185 4.275z" class="D"/><path d="M7.185-.657l2.466-2.466 2.466 2.466-2.466 2.466z" class="AN"/><path d="M9.651-3.123l2.466-2.466 2.466 2.466-2.466 2.466z" class="C"/><path d="M12.117-5.589l2.466-2.466 2.466 2.466-2.466 2.466z" class="F"/><g class="I"><path d="M17.045-5.59l.175-.175v-4.582l-.175-.175-2.463 2.466z"/><path d="M17.224-10.346v-.351l-.175.176z"/></g><g class="D"><path d="M11.939 4.451l.177-.177-2.468-2.465-2.466 2.466.177.177z"/><path d="M9.65 1.808l2.466-2.466 2.466 2.466-2.466 2.466z"/></g><path d="M12.116-.658l2.466-2.466 2.466 2.466-2.466 2.466z" class="C"/><path d="M17.046-.658l.176-.176v-4.58l-.176-.175-2.466 2.466z" class="B"/><path d="M17.224-5.414v-.351l-.176.176z" class="I"/><path d="M16.871 4.451l.176-.177-2.465-2.465-2.469 2.465.177.177z" class="D"/><path d="M17.046 4.276l.176-.176V-.482l-.176-.176-2.466 2.466z" class="C"/><path d="M17.224-.482v-.352l-.176.176z" class="B"/><g class="K"><path d="M-17.651-5.414l.175-.175-.175-.176zm0 4.931l.175-.175-.175-.175z"/><path d="M-17.651-.832l.175.175 2.466-2.466-2.466-2.467-.175.175z"/><path d="M-17.651 4.099l.175.175 2.466-2.465-2.466-2.466-.175.175z"/><path d="M-17.476-.657l2.466-2.466 2.466 2.466-2.466 2.466z"/></g><g class="L"><path d="M-12.721 4.452l.176-.176-2.465-2.468-2.47 2.467.177.177z"/><path d="M-15.01 1.809l2.465-2.465 2.465 2.465-2.465 2.465z"/><path d="M-7.788 4.452l.176-.177-2.466-2.467-2.466 2.466.176.176z"/></g></g><g clip-path="url(#E)" transform="translate(36.545 21.725)"><path d="M-25.888-6.063l.175-.175-.175-.176z" class="y"/><path d="M-25.888-6.414l.175.175 2.467-2.466-2.467-2.466-.175.175z" class="z"/><path d="M-25.713-11.171l2.465-2.465 2.465 2.465-2.465 2.465z" class="N"/><path d="M-25.888-1.131l.175-.175-.175-.176z" class="AA"/><path d="M-25.888-1.485l.175.175 2.467-2.466-2.467-2.467-.175.175z" class="AB"/><path d="M-25.714-6.239l2.466-2.466 2.466 2.466-2.466 2.466z" class="AC"/><path d="M-23.247-8.705l2.466-2.466 2.466 2.466-2.466 2.466z" class="AD"/><path d="M-20.781-11.171l2.466-2.466 2.466 2.466-2.466 2.466z" class="O"/><path d="M-25.888 3.451l.175.175 2.467-2.466-2.467-2.466-.175.175z" class="J"/><path d="M-25.713-1.307l2.465-2.465 2.465 2.465-2.465 2.465z" class="AE"/><path d="M-23.247-3.772l2.465-2.465 2.465 2.465-2.465 2.465z" class="AF"/><path d="M-20.781-6.239l2.466-2.466 2.466 2.466-2.466 2.466z" class="P"/><path d="M-18.315-8.705l2.465-2.465 2.465 2.465-2.465 2.465z" class="Q"/><path d="M-15.849-11.171l2.465-2.465 2.465 2.465-2.465 2.465z" class="R"/><path d="M-25.713 3.625l2.466-2.466 2.466 2.466-2.466 2.466z" class="AG"/><path d="M-23.247 1.159l2.466-2.466 2.466 2.466-2.466 2.466z" class="J"/><path d="M-20.781-1.307l2.466-2.466 2.466 2.466-2.466 2.466z" class="S"/><path d="M-18.315-3.772l2.465-2.465 2.465 2.465-2.465 2.465z" class="T"/><path d="M-15.85-6.239l2.466-2.466 2.466 2.466-2.466 2.466z" class="U"/><path d="M-13.383-8.705l2.467-2.466 2.466 2.467-2.467 2.466z" class="V"/><path d="M-10.917-11.171l2.465-2.465 2.465 2.465-2.465 2.465z" class="W"/><path d="M-23.247 6.091l2.466-2.466 2.466 2.466-2.466 2.466z" class="K"/><path d="M-20.781 3.625l2.466-2.466 2.466 2.466-2.466 2.466z" class="X"/><path d="M-18.315 1.16l2.466-2.466 2.466 2.466-2.466 2.466z" class="Y"/><path d="M-15.849-1.307l2.465-2.465 2.465 2.465-2.465 2.465z" class="Z"/><path d="M-13.383-3.773l2.466-2.466 2.466 2.466-2.466 2.466z" class="a"/><path d="M-10.917-6.239l2.466-2.466 2.466 2.466-2.466 2.466z" class="b"/><path d="M-8.451-8.705l2.465-2.465 2.465 2.465-2.465 2.465z" class="c"/><path d="M-5.985-11.171l2.466-2.465 2.465 2.466-2.466 2.465z" class="d"/><path d="M-20.781 8.557l2.466-2.466 2.466 2.466-2.466 2.466z" class="AH"/><path d="M-18.315 6.092l2.466-2.466 2.466 2.466-2.466 2.466z" class="e"/><path d="M-15.849 3.625l2.466-2.466 2.466 2.466-2.466 2.466z" class="f"/><path d="M-13.383 1.159l2.466-2.466 2.466 2.466-2.466 2.466z" class="g"/><path d="M-10.917-1.307l2.465-2.465 2.465 2.465-2.465 2.465z" class="h"/><path d="M-8.451-3.772l2.465-2.465 2.465 2.465-2.465 2.465z" class="i"/><path d="M-5.985-6.239l2.467-2.466 2.466 2.467-2.467 2.466z" class="j"/><path d="M-3.519-8.705l2.465-2.465 2.465 2.465-2.465 2.465z" class="k"/><path d="M-1.053-11.171l2.465-2.465 2.465 2.465-2.465 2.465z" class="l"/><path d="M-18.315 11.024l2.465-2.465 2.465 2.465-2.465 2.465z" class="L"/><path d="M-15.85 8.557l2.466-2.466 2.466 2.466-2.466 2.466z" class="AI"/><path d="M-13.383 6.091l2.466-2.466 2.466 2.466-2.466 2.466z" class="m"/><path d="M-10.917 3.625l2.466-2.466 2.466 2.466-2.466 2.466z" class="n"/><path d="M-8.451 1.16l2.466-2.466L-3.52 1.16-5.985 3.626z" class="o"/><path d="M-5.985-1.307l2.466-2.465 2.465 2.466-2.466 2.465z" class="p"/><path d="M-3.519-3.772l2.465-2.465 2.465 2.465-2.465 2.465z" class="E"/><path d="M-1.053-6.239l2.466-2.466L3.88-6.239 1.413-3.773z" class="q"/><path d="M1.413-8.705l2.466-2.466 2.466 2.466-2.466 2.466z" class="F"/><path d="M3.879-11.171l2.466-2.466 2.466 2.466-2.466 2.466z" class="B"/><path d="M-11.094 13.666l.177-.176-2.467-2.466-2.466 2.466.177.176z" class="AP"/><path d="M-13.383 11.023l2.467-2.466 2.466 2.467-2.467 2.466z" class="AJ"/><path d="M-10.917 8.557l2.466-2.466 2.466 2.466-2.466 2.466z" class="AK"/><path d="M-8.451 6.092l2.466-2.466 2.466 2.466-2.466 2.466z" class="r"/><path d="M-5.985 3.625l2.466-2.466 2.466 2.466-2.466 2.466z" class="s"/><path d="M-3.519 1.16l2.466-2.466L1.412 1.16-1.053 3.626z" class="t"/><path d="M-1.053-1.307l2.465-2.465 2.465 2.465-2.465 2.465z" class="E"/><path d="M1.413-3.772l2.465-2.465 2.465 2.465-2.465 2.465z" class="u"/><path d="M3.879-6.239l2.466-2.466 2.466 2.466-2.466 2.466z" class="G"/><path d="M8.811-6.239l.175-.175v-4.581l-.175-.175-2.466 2.466z" class="H"/><path d="M-6.161 13.666l.176-.176-2.466-2.466-2.466 2.466.176.176z" class="AQ"/><path d="M-8.451 11.024l2.465-2.465 2.465 2.465-2.465 2.465z" class="AL"/><path d="M-5.985 8.557l2.466-2.466 2.466 2.466-2.466 2.466z" class="AM"/><path d="M-3.519 6.092l2.466-2.466 2.466 2.466-2.466 2.466z" class="v"/><path d="M-1.053 3.625l2.466-2.466 2.466 2.466-2.466 2.466z" class="w"/><path d="M1.413 1.159l2.466-2.466 2.466 2.466-2.466 2.466z" class="x"/><path d="M3.879-1.307l2.466-2.466L8.81-1.307 6.345 1.159z" class="G"/><g class="H"><path d="M8.811-1.307l.175-.175v-4.582l-.175-.175-2.466 2.467z"/><path d="M8.987-6.063v-.351l-.175.176z"/></g><path d="M-1.229 13.666l.176-.176-2.466-2.466-2.466 2.466.177.176z" class="AR"/><path d="M-3.519 11.024l2.465-2.465 2.465 2.465-2.465 2.465z" class="D"/><path d="M-1.053 8.557l2.466-2.466 2.466 2.466-2.466 2.466z" class="AN"/><path d="M1.413 6.091l2.466-2.466 2.466 2.466-2.466 2.466z" class="C"/><path d="M3.879 3.625l2.466-2.466L8.81 3.625 6.345 6.091z" class="F"/><g class="I"><path d="M8.811 3.625l.175-.175v-4.582l-.175-.175-2.466 2.466z"/><path d="M8.987-1.131v-.351l-.175.176z"/></g><g class="D"><path d="M3.701 13.666l.177-.177-2.467-2.466-2.465 2.466.177.177z"/><path d="M1.413 11.023l2.465-2.465 2.465 2.465-2.465 2.465z"/></g><path d="M3.879 8.557l2.466-2.466L8.81 8.557l-2.466 2.466z" class="C"/><path d="M8.811 8.557l.176-.175V3.801l-.176-.176-2.466 2.466z" class="B"/><path d="M8.986 3.801V3.45l-.176.175z" class="I"/><path d="M8.634 13.666l.177-.177-2.466-2.466-2.466 2.466.177.177z" class="D"/><path d="M8.811 13.489l.176-.175V8.733l-.176-.176-2.466 2.466z" class="C"/><path d="M8.986 8.733v-.351l-.176.176z" class="B"/><g class="K"><path d="M-25.888 3.8l.175-.175-.175-.176zm0 4.932l.175-.175-.175-.175z"/><path d="M-25.888 8.382l.175.175 2.467-2.466-2.467-2.466-.175.175z"/><path d="M-25.888 13.311l.175.175 2.467-2.466-2.467-2.466-.175.175z"/><path d="M-25.714 8.557l2.466-2.466 2.466 2.466-2.466 2.466z"/></g><g class="L"><path d="M-20.958 13.666l.177-.176-2.466-2.466-2.467 2.466.177.176z"/><path d="M-23.247 11.024l2.465-2.465 2.465 2.465-2.465 2.465z"/><path d="M-16.026 13.666l.176-.176-2.466-2.466-2.466 2.466.176.176z"/></g></g><g clip-path="url(#F)" transform="translate(33.935 26.999)"><path d="M-23.537-11.646l.175-.175-.175-.176z" class="y"/><path d="M-23.537-11.998l.175.175 2.466-2.466-2.466-2.466-.175.175z" class="z"/><path d="M-23.362-16.755l2.467-2.466 2.466 2.467-2.467 2.466z" class="N"/><path d="M-23.537-6.715l.175-.175-.175-.176z" class="AA"/><path d="M-23.537-7.061l.175.175 2.466-2.465-2.466-2.467-.175.175z" class="AB"/><path d="M-23.362-11.822l2.467-2.466 2.466 2.467-2.467 2.466z" class="AC"/><path d="M-20.896-14.288l2.466-2.466 2.466 2.466-2.466 2.466z" class="AD"/><path d="M-18.43-16.754l2.466-2.466 2.466 2.466-2.466 2.466z" class="O"/><path d="M-23.537-2.133l.175.175 2.466-2.466-2.466-2.466-.175.175z" class="J"/><path d="M-23.362-6.89l2.465-2.465 2.465 2.465-2.465 2.465z" class="AE"/><path d="M-20.896-9.356l2.465-2.465 2.465 2.465-2.465 2.465z" class="AF"/><path d="M-18.43-11.822l2.466-2.466 2.466 2.466-2.466 2.466z" class="P"/><path d="M-15.964-14.288l2.466-2.467 2.467 2.466-2.466 2.467z" class="Q"/><path d="M-13.498-16.755l2.467-2.466 2.466 2.467-2.467 2.466z" class="R"/><path d="M-23.362-1.958l2.465-2.465 2.465 2.465-2.465 2.465z" class="AG"/><path d="M-20.896-4.424l2.466-2.466 2.466 2.466-2.466 2.466z" class="J"/><path d="M-18.43-6.89l2.465-2.465 2.465 2.465-2.465 2.465z" class="S"/><path d="M-15.964-9.355l2.465-2.465 2.465 2.465-2.465 2.465z" class="T"/><path d="M-13.498-11.822l2.467-2.466 2.466 2.467-2.467 2.466z" class="U"/><path d="M-11.031-14.288l2.466-2.466 2.466 2.466-2.466 2.466z" class="V"/><path d="M-8.565-16.754l2.466-2.466 2.466 2.466-2.466 2.466z" class="W"/><path d="M-20.896.508l2.466-2.466 2.466 2.466-2.466 2.466z" class="K"/><path d="M-18.43-1.958l2.466-2.466 2.466 2.466-2.466 2.466z" class="X"/><path d="M-15.964-4.424l2.466-2.466 2.466 2.466-2.466 2.466z" class="Y"/><path d="M-13.498-6.89l2.467-2.466 2.466 2.467-2.467 2.466z" class="Z"/><path d="M-11.031-9.356l2.465-2.465L-6.1-9.356-8.566-6.891z" class="a"/><path d="M-8.566-11.822l2.466-2.466 2.466 2.466L-6.1-9.356z" class="b"/><path d="M-6.099-14.288l2.466-2.466 2.466 2.466-2.466 2.466z" class="c"/><path d="M-3.633-16.754l2.466-2.466 2.466 2.466-2.466 2.466z" class="d"/><path d="M-18.43 2.974l2.466-2.466 2.466 2.466-2.466 2.466z" class="AH"/><path d="M-15.964.508l2.466-2.466 2.466 2.466-2.466 2.466z" class="e"/><path d="M-13.498-1.958l2.466-2.466 2.466 2.466-2.466 2.466z" class="f"/><path d="M-11.031-4.424l2.465-2.465L-6.1-4.424-8.566-1.959z" class="g"/><path d="M-8.565-6.89L-6.1-9.355-3.634-6.89-6.1-4.425z" class="h"/><path d="M-6.099-9.356l2.465-2.465 2.465 2.465-2.465 2.465z" class="i"/><path d="M-3.633-11.822l2.466-2.466 2.466 2.466-2.466 2.466z" class="j"/><path d="M-1.168-14.288l2.466-2.467 2.467 2.466-2.466 2.467z" class="k"/><path d="M1.299-16.755l2.465-2.465 2.466 2.466-2.465 2.465z" class="l"/><path d="M-15.964 5.44l2.466-2.466 2.466 2.466-2.466 2.466z" class="L"/><path d="M-13.498 2.974l2.466-2.466 2.466 2.466-2.466 2.466z" class="AI"/><path d="M-11.031.508l2.466-2.466L-6.1.508-8.565 2.974z" class="m"/><path d="M-8.565-1.958l2.466-2.466 2.466 2.466L-6.099.508z" class="n"/><path d="M-6.099-4.424l2.465-2.465 2.465 2.465-2.465 2.465z" class="o"/><path d="M-3.633-6.89l2.465-2.465L1.298-6.89-1.168-4.425z" class="p"/><path d="M-1.167-9.355l2.465-2.465 2.465 2.465L1.298-6.89z" class="E"/><path d="M1.299-11.822l2.466-2.466 2.466 2.466-2.466 2.466z" class="q"/><path d="M3.765-14.288l2.465-2.465 2.465 2.465-2.465 2.465z" class="F"/><path d="M6.231-16.754l2.466-2.466 2.465 2.465-2.466 2.466z" class="B"/><path d="M-8.742 8.083l.177-.176-2.466-2.466-2.467 2.466.177.176z" class="AP"/><path d="M-11.031 5.44l2.466-2.466L-6.1 5.44-8.565 7.906z" class="AJ"/><path d="M-8.565 2.974L-6.099.508l2.466 2.466-2.466 2.466z" class="AK"/><path d="M-6.099.508l2.466-2.466L-1.168.508-3.633 2.974z" class="r"/><path d="M-3.633-1.958l2.466-2.466 2.466 2.466L-1.167.508z" class="s"/><path d="M-1.168-4.424L1.298-6.89l2.466 2.466-2.466 2.466z" class="t"/><path d="M1.299-6.89l2.466-2.466L6.231-6.89 3.765-4.424z" class="E"/><path d="M3.765-9.356l2.465-2.465 2.465 2.465L6.23-6.891z" class="u"/><path d="M6.231-11.822l2.465-2.465 2.465 2.465-2.465 2.465z" class="G"/><path d="M11.163-11.826l.175-.175v-4.578l-.175-.175-2.466 2.466z" class="H"/><path d="M-3.81 8.083l.177-.176-2.466-2.466-2.466 2.466.176.176z" class="AQ"/><path d="M-6.099 5.44l2.466-2.466 2.466 2.466-2.466 2.466z" class="AL"/><path d="M-3.633 2.974L-1.167.508l2.466 2.466-2.466 2.466z" class="AM"/><path d="M-1.167.508l2.466-2.466L3.764.508 1.299 2.974z" class="v"/><path d="M1.299-1.958l2.466-2.466 2.466 2.466L3.765.508z" class="w"/><path d="M3.765-4.424L6.23-6.889l2.465 2.465L6.23-1.959z" class="x"/><path d="M6.231-6.89l2.465-2.465 2.465 2.465-2.465 2.465z" class="G"/><g class="H"><path d="M11.163-6.89l.175-.175v-4.582l-.175-.175-2.466 2.467z"/><path d="M11.338-11.646v-.351l-.175.176z"/></g><path d="M1.122 8.083l.176-.176-2.466-2.466-2.466 2.466.176.176z" class="AR"/><path d="M-1.167 5.44l2.466-2.466L3.764 5.44 1.299 7.906z" class="D"/><path d="M1.299 2.974L3.765.508l2.466 2.466L3.765 5.44z" class="AN"/><path d="M3.765.508l2.466-2.466L8.696.508 6.231 2.974z" class="C"/><path d="M6.231-1.958l2.466-2.466 2.466 2.466L8.697.508z" class="F"/><g class="I"><path d="M11.163-1.957l.175-.175v-4.582l-.175-.175-2.466 2.466z"/><path d="M11.338-6.715v-.351l-.175.176z"/></g><g class="D"><path d="M6.054 8.083l.177-.177L3.765 5.44 1.299 7.906l.177.177z"/><path d="M3.764 5.44L6.23 2.974 8.697 5.44 6.23 7.906z"/></g><path d="M6.231 2.974L8.697.508l2.466 2.466L8.697 5.44z" class="C"/><path d="M11.163 2.971l.175-.175v-4.579l-.175-.176L8.697.507z" class="B"/><path d="M11.338-1.783v-.35l-.175.176z" class="I"/><path d="M10.987 8.083l.177-.177L8.698 5.44 6.232 7.906l.177.177z" class="D"/><path d="M11.163 7.906l.175-.175V3.15l-.175-.176L8.697 5.44z" class="C"/><path d="M11.338 3.149v-.351l-.175.175z" class="B"/><g class="K"><path d="M-23.537-1.783l.175-.175-.175-.176zm0 4.933l.175-.175-.175-.176z"/><path d="M-23.537 2.799l.175.175 2.466-2.466-2.466-2.466-.175.175z"/><path d="M-23.537 7.735l.175.175 2.466-2.466-2.466-2.466-.175.175z"/><path d="M-23.362 2.974l2.465-2.465 2.465 2.465-2.465 2.465z"/></g><g class="L"><path d="M-18.606 8.083l.177-.176-2.466-2.466-2.466 2.466.177.176z"/><path d="M-20.896 5.44l2.466-2.466 2.466 2.466-2.466 2.466z"/><path d="M-13.674 8.083l.176-.176-2.466-2.466-2.466 2.466.176.176z"/></g></g><g clip-path="url(#G)" transform="translate(9.193 11.952)"><path fill="#db0035" d="M-4.086.733l2.466-2.466L.846.733-1.62 3.199z"/><path fill="#de001e" d="M-1.62-1.733L.846-4.199l2.466 2.466L.846.733z"/><path d="M-4.086 5.665l2.466-2.466L.845 5.665-1.62 8.131z" class="O"/><path fill="#db0033" d="M-1.62 3.199L.846.733l2.466 2.466L.846 5.665z"/><path fill="#e71318" d="M.846.733l2.466-2.466L5.778.733 3.312 3.199z"/><path fill="#eb3916" d="M3.312-1.733l2.467-2.466 2.466 2.467L5.778.734z"/><path d="M-4.086 10.598l2.466-2.466 2.466 2.466-2.466 2.466z" class="P"/><path d="M-1.62 8.131L.846 5.665l2.466 2.466-2.466 2.466z" class="Q"/><path d="M.847 5.665l2.466-2.466 2.466 2.466-2.466 2.466z" class="R"/><path fill="#e92d17" d="M3.312 3.199L5.778.733l2.466 2.466-2.466 2.466z"/><path fill="#f05813" d="M5.778.733l2.466-2.467L10.711.733 8.245 3.199z"/><path fill="#f46e0f" d="M8.245-1.733l2.466-2.466 2.466 2.466L10.711.733z"/><path d="M-4.086 15.529l2.466-2.466 2.466 2.466-2.466 2.466z" class="S"/><path d="M-1.62 13.063l2.466-2.466 2.466 2.466-2.466 2.466z" class="T"/><path d="M.846 10.598l2.466-2.466 2.466 2.466-2.466 2.466z" class="U"/><path d="M3.312 8.131l2.467-2.466 2.466 2.467-2.467 2.466z" class="V"/><path d="M5.779 5.665l2.466-2.466 2.466 2.466-2.466 2.466z" class="W"/><path fill="#f7790d" d="M8.245 3.199L10.711.733l2.466 2.466-2.466 2.466z"/><path fill="#fb8d03" d="M10.711.733l2.466-2.466L15.643.733l-2.466 2.466z"/><path fill="#f87e0b" d="M13.177-1.733l2.466-2.466 2.466 2.466L15.643.733z"/><path d="M-4.086 20.461l2.466-2.466 2.466 2.466-2.466 2.466z" class="X"/><path d="M-1.62 17.995l2.466-2.466 2.466 2.466-2.466 2.466z" class="Y"/><path d="M.846 15.529l2.466-2.466 2.466 2.466-2.466 2.466z" class="Z"/><path d="M3.312 13.063l2.466-2.466 2.466 2.466-2.466 2.466z" class="a"/><path d="M5.778 10.597L8.244 8.13l2.467 2.466-2.466 2.467z" class="b"/><path d="M8.245 8.131l2.466-2.466 2.466 2.466-2.466 2.466z" class="c"/><path d="M10.711 5.665l2.466-2.466 2.466 2.466-2.466 2.466z" class="d"/><path fill="#f1ae00" d="M13.177 3.199L15.643.733l2.466 2.466-2.466 2.466z"/><path fill="#f6a100" d="M15.643.733l2.466-2.466L20.575.733l-2.466 2.466z"/><path d="M-1.62 22.927l2.465-2.465 2.465 2.465-2.465 2.465z" class="e"/><path d="M.847 20.461l2.466-2.466 2.466 2.466-2.466 2.466z" class="f"/><path d="M3.312 17.995l2.466-2.466 2.466 2.466-2.466 2.466z" class="g"/><path d="M5.779 15.529l2.465-2.465 2.465 2.465-2.465 2.465z" class="h"/><path d="M8.245 13.063l2.466-2.466 2.466 2.466-2.466 2.466z" class="i"/><path d="M10.711 10.598l2.466-2.466 2.466 2.466-2.466 2.466z" class="j"/><path d="M13.177 8.131l2.466-2.466 2.466 2.466-2.466 2.466z" class="k"/><path d="M15.643 5.665L18.108 3.2l2.465 2.465-2.465 2.465z" class="l"/><path d="M18.109 3.199L20.575.733l2.466 2.466-2.466 2.466z" class="AS"/><path fill="#f6a100" d="M18.109-1.733l2.466-2.466 2.466 2.466L20.575.733z"/><path d="M3.313 22.927l2.465-2.465 2.465 2.465-2.465 2.465z" class="m"/><g class="AS"><path d="M20.575.733l2.465-2.465L25.506.733 23.04 3.198z"/><path d="M25.507.733l.175-.175v-4.582l-.175-.175-2.47 2.465z"/></g><path d="M5.779 20.461l2.465-2.465 2.465 2.465-2.465 2.465z" class="n"/><path d="M25.507 5.665l.175-.175V.912l-.175-.175-2.47 2.462z" class="AO"/><path d="M8.245 17.995l2.466-2.466 2.466 2.466-2.466 2.466z" class="o"/><path d="M10.711 15.529l2.466-2.466 2.466 2.466-2.466 2.466z" class="p"/><path d="M13.177 13.063l2.466-2.466 2.466 2.466-2.466 2.466z" class="E"/><path d="M15.643 10.597l2.466-2.466 2.466 2.466-2.466 2.466z" class="q"/><path d="M18.109 8.131l2.465-2.465 2.465 2.465-2.465 2.465z" class="F"/><path d="M20.575 5.665l2.466-2.466 2.466 2.466-2.466 2.466z" class="B"/><path d="M25.682.908v-.35l-.175.176z" class="AO"/><path d="M8.245 22.927l2.465-2.465 2.465 2.465-2.465 2.465z" class="r"/><path d="M10.711 20.461l2.466-2.466 2.466 2.466-2.466 2.466z" class="s"/><path d="M13.177 17.995l2.466-2.466 2.466 2.466-2.466 2.466z" class="t"/><path d="M15.643 15.529l2.466-2.466 2.466 2.466-2.466 2.466z" class="E"/><path d="M18.109 13.063l2.466-2.466 2.466 2.466-2.466 2.466z" class="u"/><path d="M20.575 10.598l2.466-2.466 2.466 2.466-2.466 2.466z" class="G"/><path d="M25.507 10.597l.175-.175V5.84l-.175-.175-2.47 2.466z" class="H"/><path d="M13.177 22.927l2.466-2.466 2.466 2.466-2.466 2.466z" class="v"/><path d="M15.643 20.461l2.466-2.466 2.466 2.466-2.466 2.466z" class="w"/><path d="M18.109 17.995l2.466-2.466 2.466 2.466-2.466 2.466z" class="x"/><path d="M20.575 15.529l2.466-2.466 2.466 2.466-2.466 2.466z" class="G"/><g class="H"><path d="M25.507 15.529l.175-.176v-4.58l-.175-.175-2.47 2.466z"/><path d="M25.682 10.772v-.351l-.175.176z"/></g><path d="M18.109 22.927l2.466-2.466 2.466 2.466-2.466 2.466z" class="C"/><path d="M20.575 20.461l2.466-2.466 2.466 2.466-2.466 2.466z" class="F"/><g class="I"><path d="M25.507 20.462l.175-.175v-4.579l-.175-.175-2.47 2.463z"/><path d="M25.682 15.705v-.351l-.175.176z"/></g><path d="M25.506 25.393l.176-.176v-4.581l-.176-.176-2.468 2.467z" class="B"/><path d="M25.682 20.637v-.352l-.176.176z" class="I"/><path d="M25.682 5.84v-.35l-.175.175z" class="AO"/></g><g clip-path="url(#H)" fill="#004cac"><path d="M58.617 27.406a2.21 2.21 0 0 1-2.2 2.2h-.543a6.37 6.37 0 0 1-4.651-1.925 6.3 6.3 0 0 1-1.938-4.639v-8.76a2.1 2.1 0 0 1 .662-1.559 2.16 2.16 0 0 1 1.563-.645c1.214.003 2.197.986 2.2 2.2v2.2h2.713a2.2 2.2 0 0 1 0 4.393h-2.739v2.17a2.21 2.21 0 0 0 2.17 2.171h.569c1.214.003 2.197.986 2.2 2.2m13.31-.006a2.21 2.21 0 0 1-2.2 2.2h-4.367a6.55 6.55 0 1 1 4.626-11.189 6.26 6.26 0 0 1 1.939 4.625zm-4.391-4.368a2.06 2.06 0 0 0-.633-1.512c-.851-.843-2.223-.843-3.074 0-.411.395-.64.942-.634 1.512a2.09 2.09 0 0 0 .634 1.538 2.06 2.06 0 0 0 1.511.633h2.171zm15.908 4.368c-.003 1.214-.986 2.197-2.2 2.2h-.543a6.37 6.37 0 0 1-4.651-1.925 6.3 6.3 0 0 1-1.938-4.639v-8.76a2.1 2.1 0 0 1 .662-1.559 2.16 2.16 0 0 1 1.563-.645 2.2 2.2 0 0 1 2.2 2.2v2.2h2.713a2.2 2.2 0 0 1 0 4.393h-2.739v2.17a2.21 2.21 0 0 0 2.17 2.171h.569c1.214.003 2.197.986 2.2 2.2m5.523-13.16c-.003 1.214-.986 2.197-2.2 2.2a2.16 2.16 0 0 1-1.564-.646 2.09 2.09 0 0 1-.659-1.551c.003-1.214.986-2.197 2.2-2.2.587-.007 1.152.227 1.563.646.427.402.666.964.659 1.55m0 13.153c-.003 1.214-.986 2.197-2.2 2.2a2.16 2.16 0 0 1-1.564-.646 2.09 2.09 0 0 1-.659-1.55v-7.135c.003-1.214.986-2.197 2.2-2.2a2.16 2.16 0 0 1 1.563.646c.427.402.666.964.659 1.55zm6.151.001a2.2 2.2 0 0 1-4.393 0V14.252a2.2 2.2 0 0 1 4.393 0zm14.729-4.367c.027 1.743-.664 3.421-1.912 4.639a6.28 6.28 0 0 1-4.626 1.925 6.37 6.37 0 0 1-4.651-1.925 6.3 6.3 0 0 1-1.938-4.639v-8.786a2.2 2.2 0 0 1 4.393 0V16.5h2.171a6.34 6.34 0 0 1 4.638 1.913 6.28 6.28 0 0 1 1.925 4.625m-4.393 0c.008-.571-.216-1.121-.62-1.525a2.12 2.12 0 0 0-1.525-.62h-2.2v2.145a2.21 2.21 0 0 0 2.171 2.171 2.06 2.06 0 0 0 1.512-.633c.415-.403.644-.96.634-1.538zm18.605 0c-.044 3.593-2.97 6.483-6.564 6.483s-6.519-2.89-6.563-6.483v-4.366a2.2 2.2 0 0 1 4.393 0v4.367a2.16 2.16 0 0 0 3.25 1.908 2.16 2.16 0 0 0 1.065-1.908v-4.342c.003-1.214.986-2.197 2.2-2.2a2.16 2.16 0 0 1 1.563.646 2.1 2.1 0 0 1 .659 1.551zm14.394 0c.02 2.668-1.572 5.085-4.031 6.12a6.59 6.59 0 0 1-7.195-1.395c-1.895-1.879-2.468-4.716-1.452-7.183a6.59 6.59 0 0 1 6.088-4.08h2.145v-2.222a2.2 2.2 0 0 1 2.2-2.2c.591-.005 1.159.227 1.577.645a2.08 2.08 0 0 1 .671 1.551zm-4.419-2.145h-2.144a2.14 2.14 0 0 0-1.551.633c-.417.391-.652.94-.646 1.512a2.21 2.21 0 0 0 2.171 2.171 2.06 2.06 0 0 0 1.512-.633c.414-.403.643-.96.633-1.538z"/><path d="M152.831 23.038c0 3.625-2.939 6.563-6.564 6.563s-6.563-2.939-6.563-6.563v-4.366a2.2 2.2 0 0 1 4.393 0v4.367a2.21 2.21 0 0 0 2.17 2.168 2.06 2.06 0 0 0 1.512-.633c.414-.403.643-.96.633-1.538v-4.339c.003-1.214.986-2.197 2.2-2.2a2.16 2.16 0 0 1 1.563.646 2.1 2.1 0 0 1 .659 1.551zm12.972-4.366c-.003 1.214-.986 2.197-2.2 2.2h-3.23c-.573-.005-1.123.224-1.524.634a2.07 2.07 0 0 0-.646 1.537v4.364a2.21 2.21 0 0 1-2.2 2.2 2.16 2.16 0 0 1-1.563-.646c-.427-.402-.666-.964-.659-1.55v-4.373c.006-3.622 2.941-6.557 6.563-6.563h3.231a2.16 2.16 0 0 1 1.563.646 2.1 2.1 0 0 1 .659 1.551m1.223 8.734a2.21 2.21 0 0 1-2.2 2.2 2.16 2.16 0 0 1-1.563-.646c-.427-.402-.666-.964-.659-1.55.003-1.214.986-2.197 2.2-2.2a2.16 2.16 0 0 1 1.564.646 2.1 2.1 0 0 1 .659 1.551m14.007-.001a2.21 2.21 0 0 1-2.2 2.2h-4.238a6.37 6.37 0 0 1-4.652-1.925 6.54 6.54 0 0 1 4.626-11.177h4.237a2.16 2.16 0 0 1 1.564.646 2.19 2.19 0 0 1-1.537 3.748h-4.238a2.14 2.14 0 0 0-1.551.633c-.417.392-.651.94-.645 1.512.018 1.191.98 2.153 2.171 2.171h4.237a2.16 2.16 0 0 1 1.564.646 2.1 2.1 0 0 1 .659 1.551m13.979-4.373c.027 1.743-.664 3.421-1.912 4.639a6.55 6.55 0 1 1-9.265-9.264c1.871-1.875 4.687-2.437 7.134-1.424s4.043 3.401 4.042 6.049m-4.393 0a2.12 2.12 0 0 0-2.144-2.145 2.1 2.1 0 0 0-1.538.633 2.06 2.06 0 0 0-.633 1.512 2.21 2.21 0 0 0 2.171 2.171 2.06 2.06 0 0 0 1.512-.633c.414-.403.643-.96.633-1.538m27.364 4.368a2.2 2.2 0 0 1-4.393 0v-4.368c.002-.576-.226-1.129-.634-1.537a2.16 2.16 0 0 0-1.537-.633c-.57-.006-1.117.223-1.512.634a2.09 2.09 0 0 0-.633 1.537v4.342a2.21 2.21 0 0 1-3.773 1.576c-.42-.405-.654-.966-.646-1.55v-4.369a2.09 2.09 0 0 0-.634-1.537c-.395-.411-.941-.64-1.511-.634a2.11 2.11 0 0 0-1.525.634 2.07 2.07 0 0 0-.645 1.537v4.342a2.21 2.21 0 0 1-2.2 2.2 2.16 2.16 0 0 1-1.563-.646c-.427-.402-.666-.964-.659-1.55v-4.346a6.55 6.55 0 0 1 10.931-4.883c1.175-1.101 2.731-1.704 4.341-1.68a6.37 6.37 0 0 1 4.652 1.925 6.3 6.3 0 0 1 1.938 4.638zM56.369 25.144h-.568a2.2 2.2 0 0 1-2.168-2.168v-2.168h2.736c1.212 0 2.194-.982 2.194-2.194s-.982-2.194-2.194-2.194h-2.71v-2.194a2.2 2.2 0 0 0-2.194-2.194 2.15 2.15 0 0 0-1.562.645 2.09 2.09 0 0 0-.658 1.548v2.065h-.715c-1.212 0-2.194.982-2.194 2.194s.982 2.194 2.194 2.194h.715v2.3a6.29 6.29 0 0 0 1.935 4.633 6.36 6.36 0 0 0 4.646 1.923h.542c1.193-.025 2.147-1 2.147-2.193s-.954-2.168-2.147-2.193m24.938-.004h-.568a2.2 2.2 0 0 1-2.168-2.168v-2.168h2.736c1.212 0 2.194-.982 2.194-2.194s-.982-2.194-2.194-2.194h-2.71v-2.194a2.2 2.2 0 0 0-2.194-2.194 2.15 2.15 0 0 0-1.562.645c-.426.401-.665.963-.658 1.548v2.065h-.715c-1.212 0-2.194.982-2.194 2.194s.982 2.194 2.194 2.194h.715v2.3a6.29 6.29 0 0 0 1.935 4.633 6.36 6.36 0 0 0 4.646 1.923h.542c1.193-.025 2.147-1 2.147-2.193s-.954-2.168-2.147-2.193"/></g></svg>