<svg id="Group_533" data-name="Group 533" xmlns="http://www.w3.org/2000/svg" width="12.412" height="12.412" viewBox="0 0 12.412 12.412">
  <path id="kapat" d="M15.592,15.592a5.978,5.978,0,0,0,1.82-4.386,5.971,5.971,0,0,0-1.82-4.393A5.989,5.989,0,0,0,11.206,5,6,6,0,0,0,6.814,6.814,6,6,0,0,0,5,11.206a5.989,5.989,0,0,0,1.814,4.386,5.986,5.986,0,0,0,4.393,1.82,5.978,5.978,0,0,0,4.386-1.82m-4.386-5.317,1.7-1.7a.616.616,0,0,1,.462-.193.653.653,0,0,1,.469.193.642.642,0,0,1,.186.462.651.651,0,0,1-.186.469l-1.7,1.7,1.7,1.7a.63.63,0,0,1,.193.462.659.659,0,0,1-.662.662.63.63,0,0,1-.462-.193l-1.7-1.7-1.7,1.7a.638.638,0,0,1-.469.193.63.63,0,0,1-.462-.193.638.638,0,0,1-.193-.469.63.63,0,0,1,.193-.462l1.7-1.7-1.7-1.689a.653.653,0,0,1-.193-.469.63.63,0,0,1,.193-.462.62.62,0,0,1,.462-.2.627.627,0,0,1,.469.2Z" transform="translate(-5 -5)" fill="#6f7e90"/>
</svg>
