<svg id="hotel-icon" xmlns="http://www.w3.org/2000/svg" width="12.595" height="14.226" viewBox="0 0 12.595 14.226">
  <path id="Path_219" data-name="Path 219" d="M22.795,34.276V27.314a.534.534,0,0,0-.538-.538H20.39a.142.142,0,0,1-.142-.142v-2.9a.534.534,0,0,0-.538-.538H13.333a.534.534,0,0,0-.538.538v2.009a.142.142,0,0,1-.142.142H10.738a.534.534,0,0,0-.538.538V34.26a.284.284,0,0,0,.285.285H22.51A.262.262,0,0,0,22.795,34.276ZM12.874,32.44a.034.034,0,0,1-.032.032H11.355a.034.034,0,0,1-.032-.032V30.953a.034.034,0,0,1,.032-.032h1.487a.034.034,0,0,1,.032.032Zm0-2.721a.034.034,0,0,1-.032.032H11.355a.034.034,0,0,1-.032-.032V28.232a.034.034,0,0,1,.032-.032h1.487a.034.034,0,0,1,.032.032Zm2.943,2.721a.034.034,0,0,1-.032.032H14.3a.034.034,0,0,1-.032-.032V30.953a.034.034,0,0,1,.032-.032h1.487a.034.034,0,0,1,.032.032Zm0-2.721a.034.034,0,0,1-.032.032H14.3a.034.034,0,0,1-.032-.032V28.232A.034.034,0,0,1,14.3,28.2h1.487a.034.034,0,0,1,.032.032Zm0-2.848a.034.034,0,0,1-.032.032H14.3a.034.034,0,0,1-.032-.032V25.384a.034.034,0,0,1,.032-.032h1.487a.034.034,0,0,1,.032.032Zm2.721,5.57a.034.034,0,0,1-.032.032H17.02a.034.034,0,0,1-.032-.032V30.953a.034.034,0,0,1,.032-.032h1.487a.034.034,0,0,1,.032.032V32.44Zm0-2.721a.034.034,0,0,1-.032.032H17.02a.034.034,0,0,1-.032-.032V28.232a.034.034,0,0,1,.032-.032h1.487a.034.034,0,0,1,.032.032v1.487Zm0-2.848a.034.034,0,0,1-.032.032H17.02a.034.034,0,0,1-.032-.032V25.384a.034.034,0,0,1,.032-.032h1.487a.034.034,0,0,1,.032.032v1.487Zm2.943,5.57a.034.034,0,0,1-.032.032H19.962a.034.034,0,0,1-.032-.032V30.953a.034.034,0,0,1,.032-.032H21.45a.034.034,0,0,1,.032.032Zm0-2.721a.034.034,0,0,1-.032.032H19.962a.034.034,0,0,1-.032-.032V28.232a.034.034,0,0,1,.032-.032H21.45a.034.034,0,0,1,.032.032Z" transform="translate(-10.2 -20.32)" fill="#6f7e90"/>
  <path id="Path_220" data-name="Path 220" d="M45.1,5.918a.094.094,0,0,0-.047-.158l-.617-.095c-.032,0-.063-.016-.063-.047l-.285-.57a.09.09,0,0,0-.158,0l-.285.57c-.016.032-.032.047-.063.047l-.617.095a.09.09,0,0,0-.047.158l.443.443c.016.016.016.032.016.063l-.111.617a.087.087,0,0,0,.127.095l.554-.285a.071.071,0,0,1,.079,0l.554.285a.087.087,0,0,0,.127-.095l-.079-.617c0-.032,0-.063.032-.079Z" transform="translate(-37.715 -5)" fill="#6f7e90"/>
  <path id="Path_221" data-name="Path 221" d="M31.073,9.344a.063.063,0,0,0-.032-.111l-.459-.063c-.016,0-.047-.016-.047-.032l-.206-.427a.074.074,0,0,0-.127,0l-.19.411c-.016.016-.032.032-.047.032l-.459.063c-.047.016-.079.079-.032.111l.332.316c.016.016.016.032.016.063l-.079.443a.062.062,0,0,0,.095.063l.411-.206a.048.048,0,0,1,.063,0l.411.206a.062.062,0,0,0,.095-.063l-.079-.443a.1.1,0,0,1,.016-.063Z" transform="translate(-26.406 -8.094)" fill="#6f7e90"/>
  <path id="Path_222" data-name="Path 222" d="M60.566,9.154l-.459.063c-.047.016-.079.079-.032.111l.332.316c.016.016.016.032.016.063l-.079.443a.062.062,0,0,0,.095.063l.411-.206a.048.048,0,0,1,.063,0l.411.206a.062.062,0,0,0,.095-.063l-.079-.443a.1.1,0,0,1,.016-.063l.332-.316a.063.063,0,0,0-.032-.111L61.2,9.154c-.016,0-.047-.016-.047-.032l-.206-.411a.074.074,0,0,0-.127,0l-.206.411C60.6,9.138,60.581,9.154,60.566,9.154Z" transform="translate(-52.164 -8.094)" fill="#6f7e90"/>
</svg>
